v 0.138564 0.400000 0.080000
v 0.160000 0.400000 0.000000
v 0.138564 0.400000 -0.080000
v 0.080000 0.400000 -0.138564
v 0.000000 0.400000 -0.160000
v -0.080000 0.400000 -0.138564
v -0.138564 0.400000 -0.080000
v -0.160000 0.400000 0.000000
v -0.138564 0.400000 0.080000
v -0.080000 0.400000 0.138564
v 0.000000 0.400000 0.160000
v 0.080000 0.400000 0.138564
v 0.138582 0.247828 0.080010
v 0.160020 0.247828 0.000000
v 0.138564 0.400000 0.080000
v 0.160000 0.400000 0.000000
v 0.203675 0.174567 0.117592
v 0.235184 0.174567 0.000000
v 0.138582 0.247828 0.080010
v 0.160020 0.247828 0.000000
v 0.245556 0.081413 0.141772
v 0.283544 0.081413 0.000000
v 0.252854 -0.023209 0.145985
v 0.291970 -0.023209 0.000000
v 0.267121 -0.125186 0.000000
v 0.231333 -0.125186 0.133560
v 0.204651 -0.209531 0.000000
v 0.177233 -0.209531 0.102326
v 0.118858 -0.269996 0.000000
v 0.102934 -0.269996 0.059429
v 0.000000 -0.270000 0.000000
v 0.118858 -0.269996 0.000000
v 0.102934 -0.269996 0.059429
v 0.138582 0.247828 -0.080010
v 0.138564 0.400000 -0.080000
v 0.203675 0.174567 -0.117592
v 0.138582 0.247828 -0.080010
v 0.245556 0.081413 -0.141772
v 0.252854 -0.023209 -0.145985
v 0.231333 -0.125186 -0.133560
v 0.177233 -0.209531 -0.102326
v 0.102934 -0.269996 -0.059429
v 0.102934 -0.269996 -0.059429
v 0.080010 0.247828 -0.138582
v 0.080000 0.400000 -0.138564
v 0.117592 0.174567 -0.203675
v 0.080010 0.247828 -0.138582
v 0.141772 0.081413 -0.245556
v 0.145985 -0.023209 -0.252854
v 0.133560 -0.125186 -0.231333
v 0.102326 -0.209531 -0.177233
v 0.059429 -0.269996 -0.102934
v 0.059429 -0.269996 -0.102934
v 0.000000 0.247828 -0.160020
v 0.000000 0.400000 -0.160000
v 0.000000 0.174567 -0.235184
v 0.000000 0.247828 -0.160020
v 0.000000 0.081413 -0.283544
v 0.000000 -0.023209 -0.291970
v 0.000000 -0.125186 -0.267121
v 0.000000 -0.209531 -0.204651
v 0.000000 -0.269996 -0.118858
v 0.000000 -0.269996 -0.118858
v -0.080010 0.247828 -0.138582
v -0.080000 0.400000 -0.138564
v -0.117592 0.174567 -0.203675
v -0.080010 0.247828 -0.138582
v -0.141772 0.081413 -0.245556
v -0.145985 -0.023209 -0.252854
v -0.133560 -0.125186 -0.231333
v -0.102326 -0.209531 -0.177233
v -0.059429 -0.269996 -0.102934
v -0.059429 -0.269996 -0.102934
v -0.138582 0.247828 -0.080010
v -0.138564 0.400000 -0.080000
v -0.203675 0.174567 -0.117592
v -0.138582 0.247828 -0.080010
v -0.245556 0.081413 -0.141772
v -0.252854 -0.023209 -0.145985
v -0.231333 -0.125186 -0.133560
v -0.177233 -0.209531 -0.102326
v -0.102934 -0.269996 -0.059429
v -0.102934 -0.269996 -0.059429
v -0.160020 0.247828 0.000000
v -0.160000 0.400000 0.000000
v -0.235184 0.174567 0.000000
v -0.160020 0.247828 0.000000
v -0.283544 0.081413 0.000000
v -0.291970 -0.023209 0.000000
v -0.267121 -0.125186 0.000000
v -0.204651 -0.209531 0.000000
v -0.118858 -0.269996 0.000000
v -0.118858 -0.269996 0.000000
v -0.138582 0.247828 0.080010
v -0.138564 0.400000 0.080000
v -0.203675 0.174567 0.117592
v -0.138582 0.247828 0.080010
v -0.245556 0.081413 0.141772
v -0.252854 -0.023209 0.145985
v -0.231333 -0.125186 0.133560
v -0.177233 -0.209531 0.102326
v -0.102934 -0.269996 0.059429
v -0.102934 -0.269996 0.059429
v -0.080010 0.247828 0.138582
v -0.080000 0.400000 0.138564
v -0.117592 0.174567 0.203675
v -0.080010 0.247828 0.138582
v -0.141772 0.081413 0.245556
v -0.145985 -0.023209 0.252854
v -0.133560 -0.125186 0.231333
v -0.102326 -0.209531 0.177233
v -0.059429 -0.269996 0.102934
v -0.059429 -0.269996 0.102934
v 0.000000 0.247828 0.160020
v 0.000000 0.400000 0.160000
v 0.000000 0.174567 0.235184
v 0.000000 0.247828 0.160020
v 0.000000 0.081413 0.283544
v 0.000000 -0.023209 0.291970
v 0.000000 -0.125186 0.267121
v 0.000000 -0.209531 0.204651
v 0.000000 -0.269996 0.118858
v 0.000000 -0.269996 0.118858
v 0.080010 0.247828 0.138582
v 0.080000 0.400000 0.138564
v 0.117592 0.174567 0.203675
v 0.080010 0.247828 0.138582
v 0.141772 0.081413 0.245556
v 0.145985 -0.023209 0.252854
v 0.133560 -0.125186 0.231333
v 0.102326 -0.209531 0.177233
v 0.059429 -0.269996 0.102934
v 0.059429 -0.269996 0.102934
v 0.137328 0.186119 -0.374517
vn 0.0571 0.9967 -0.0570
vn -0.0571 0.9967 -0.0571
vn -0.0779 0.9967 -0.0209
vn 0.0209 0.9967 0.0779
vn 0.0779 0.9967 -0.0209
vn -0.0779 0.9967 0.0209
vn -0.0571 0.9967 0.0570
vn -0.0209 0.9967 -0.0779
vn 0.0209 0.9967 -0.0779
vn 0.0779 0.9967 0.0209
vn 0.0571 0.9967 0.0571
vn -0.0209 0.9967 0.0779
vn 0.8181 0.0001 0.5751
vn 0.9960 0.0001 0.0890
vn 0.9071 0.0001 0.4210
vn 0.9960 0.0001 -0.0890
vn 0.6990 0.5967 0.3941
vn 0.8025 0.5967 -0.0082
vn 0.6344 0.7147 0.2944
vn 0.6966 0.7147 -0.0622
vn 0.8346 0.2766 0.4764
vn 0.9610 0.2766 -0.0047
vn 0.8628 -0.0793 0.4993
vn 0.9968 -0.0794 0.0011
vn 0.9050 -0.4253 0.0072
vn 0.7802 -0.4253 0.4588
vn 0.6981 -0.7159 0.0099
vn 0.5996 -0.7160 0.3577
vn 0.5753 -0.8163 0.0514
vn 0.4726 -0.8163 0.3321
vn 0.0000 -1.0000 -0.0000
vn 0.9071 0.0001 -0.4210
vn 0.8181 0.0002 -0.5751
vn 0.6908 0.5967 -0.4083
vn 0.5722 0.7147 -0.4022
vn 0.8299 0.2767 -0.4845
vn 0.8638 -0.0794 -0.4975
vn 0.7874 -0.4253 -0.4462
vn 0.6095 -0.7159 -0.3404
vn 0.5239 -0.8163 -0.2432
vn 0.5751 0.0001 -0.8181
vn 0.4210 0.0001 -0.9071
vn 0.3941 0.5967 -0.6990
vn 0.2944 0.7147 -0.6344
vn 0.4764 0.2766 -0.8346
vn 0.4993 -0.0794 -0.8628
vn 0.4588 -0.4253 -0.7802
vn 0.3577 -0.7160 -0.5996
vn 0.3321 -0.8163 -0.4726
vn 0.0890 0.0001 -0.9960
vn -0.0890 0.0002 -0.9960
vn -0.0082 0.5967 -0.8025
vn -0.0622 0.7147 -0.6966
vn -0.0047 0.2766 -0.9610
vn 0.0011 -0.0794 -0.9968
vn 0.0072 -0.4253 -0.9050
vn 0.0099 -0.7159 -0.6981
vn 0.0514 -0.8163 -0.5753
vn -0.4210 0.0001 -0.9071
vn -0.5751 0.0001 -0.8181
vn -0.4083 0.5967 -0.6908
vn -0.4022 0.7147 -0.5722
vn -0.4845 0.2767 -0.8299
vn -0.4975 -0.0793 -0.8638
vn -0.4462 -0.4253 -0.7874
vn -0.3404 -0.7160 -0.6095
vn -0.2432 -0.8163 -0.5239
vn -0.8181 0.0002 -0.5751
vn -0.9071 0.0001 -0.4210
vn -0.6990 0.5967 -0.3941
vn -0.6344 0.7147 -0.2944
vn -0.8346 0.2766 -0.4764
vn -0.8628 -0.0793 -0.4993
vn -0.7802 -0.4253 -0.4588
vn -0.5996 -0.7160 -0.3577
vn -0.4726 -0.8163 -0.3321
vn -0.9960 0.0001 -0.0890
vn -0.9960 0.0001 0.0890
vn -0.8025 0.5967 0.0082
vn -0.6966 0.7147 0.0622
vn -0.9610 0.2766 0.0047
vn -0.9968 -0.0794 -0.0011
vn -0.9050 -0.4253 -0.0072
vn -0.6981 -0.7159 -0.0099
vn -0.5753 -0.8163 -0.0514
vn -0.9071 0.0002 0.4210
vn -0.8181 0.0002 0.5751
vn -0.6908 0.5967 0.4083
vn -0.5722 0.7147 0.4022
vn -0.8299 0.2767 0.4845
vn -0.8638 -0.0794 0.4975
vn -0.7874 -0.4253 0.4462
vn -0.6095 -0.7159 0.3404
vn -0.5239 -0.8163 0.2432
vn -0.5751 0.0001 0.8181
vn -0.4210 0.0002 0.9071
vn -0.3941 0.5967 0.6990
vn -0.2944 0.7147 0.6344
vn -0.4764 0.2766 0.8346
vn -0.4993 -0.0794 0.8628
vn -0.4588 -0.4253 0.7802
vn -0.3577 -0.7160 0.5996
vn -0.3321 -0.8163 0.4726
vn -0.0890 0.0001 0.9960
vn 0.0890 0.0002 0.9960
vn 0.0082 0.5967 0.8025
vn 0.0622 0.7147 0.6966
vn 0.0047 0.2766 0.9610
vn -0.0011 -0.0794 0.9968
vn -0.0072 -0.4253 0.9050
vn -0.0099 -0.7159 0.6981
vn -0.0514 -0.8163 0.5753
vn 0.4210 0.0001 0.9071
vn 0.5751 0.0001 0.8181
vn 0.4083 0.5967 0.6908
vn 0.4022 0.7147 0.5722
vn 0.4845 0.2767 0.8299
vn 0.4975 -0.0793 0.8638
vn 0.4462 -0.4253 0.7874
vn 0.3404 -0.7160 0.6095
vn 0.2432 -0.8163 0.5239
f 7//1 10//2 11//3
f 3//4 6//5 7//1
f 12//6 1//7 3//4
f 9//8 10//2 7//1
f 7//1 8//9 9//8
f 5//10 6//5 3//4
f 3//4 4//11 5//10
f 1//7 2//12 3//4
f 11//3 12//6 3//4
f 3//4 7//1 11//3
f 13//13 14//14 15//15
f 14//14 16//16 15//15
f 17//17 18//18 19//19
f 18//18 20//20 19//19
f 21//21 22//22 17//17
f 22//22 18//18 17//17
f 23//23 24//24 21//21
f 24//24 22//22 21//21
f 24//24 23//23 25//25
f 26//26 25//25 23//23
f 25//25 26//26 27//27
f 28//28 27//27 26//26
f 27//27 28//28 29//29
f 30//30 29//29 28//28
f 31//31 32//31 33//31
f 14//14 34//32 16//16
f 34//32 35//33 16//16
f 18//18 36//34 20//20
f 36//34 37//35 20//20
f 22//22 38//36 18//18
f 38//36 36//34 18//18
f 24//24 39//37 22//22
f 39//37 38//36 22//22
f 39//37 24//24 40//38
f 25//25 40//38 24//24
f 40//38 25//25 41//39
f 27//27 41//39 25//25
f 41//39 27//27 42//40
f 29//29 42//40 27//27
f 31//31 43//31 32//31
f 34//32 44//41 35//33
f 44//41 45//42 35//33
f 36//34 46//43 37//35
f 46//43 47//44 37//35
f 38//36 48//45 36//34
f 48//45 46//43 36//34
f 39//37 49//46 38//36
f 49//46 48//45 38//36
f 49//46 39//37 50//47
f 40//38 50//47 39//37
f 50//47 40//38 51//48
f 41//39 51//48 40//38
f 51//48 41//39 52//49
f 42//40 52//49 41//39
f 31//31 53//31 43//31
f 44//41 54//50 45//42
f 54//50 55//51 45//42
f 46//43 56//52 47//44
f 56//52 57//53 47//44
f 48//45 58//54 46//43
f 58//54 56//52 46//43
f 49//46 59//55 48//45
f 59//55 58//54 48//45
f 59//55 49//46 60//56
f 50//47 60//56 49//46
f 60//56 50//47 61//57
f 51//48 61//57 50//47
f 61//57 51//48 62//58
f 52//49 62//58 51//48
f 31//31 63//31 53//31
f 54//50 64//59 55//51
f 64//59 65//60 55//51
f 56//52 66//61 57//53
f 66//61 67//62 57//53
f 58//54 68//63 56//52
f 68//63 66//61 56//52
f 59//55 69//64 58//54
f 69//64 68//63 58//54
f 69//64 59//55 70//65
f 60//56 70//65 59//55
f 70//65 60//56 71//66
f 61//57 71//66 60//56
f 71//66 61//57 72//67
f 62//58 72//67 61//57
f 31//31 73//31 63//31
f 64//59 74//68 65//60
f 74//68 75//69 65//60
f 66//61 76//70 67//62
f 76//70 77//71 67//62
f 68//63 78//72 66//61
f 78//72 76//70 66//61
f 69//64 79//73 68//63
f 79//73 78//72 68//63
f 79//73 69//64 80//74
f 70//65 80//74 69//64
f 80//74 70//65 81//75
f 71//66 81//75 70//65
f 81//75 71//66 82//76
f 72//67 82//76 71//66
f 31//31 83//31 73//31
f 74//68 84//77 75//69
f 84//77 85//78 75//69
f 76//70 86//79 77//71
f 86//79 87//80 77//71
f 78//72 88//81 76//70
f 88//81 86//79 76//70
f 79//73 89//82 78//72
f 89//82 88//81 78//72
f 89//82 79//73 90//83
f 80//74 90//83 79//73
f 90//83 80//74 91//84
f 81//75 91//84 80//74
f 91//84 81//75 92//85
f 82//76 92//85 81//75
f 31//31 93//31 83//31
f 84//77 94//86 85//78
f 94//86 95//87 85//78
f 86//79 96//88 87//80
f 96//88 97//89 87//80
f 88//81 98//90 86//79
f 98//90 96//88 86//79
f 89//82 99//91 88//81
f 99//91 98//90 88//81
f 99//91 89//82 100//92
f 90//83 100//92 89//82
f 100//92 90//83 101//93
f 91//84 101//93 90//83
f 101//93 91//84 102//94
f 92//85 102//94 91//84
f 31//31 103//31 93//31
f 94//86 104//95 95//87
f 104//95 105//96 95//87
f 96//88 106//97 97//89
f 106//97 107//98 97//89
f 98//90 108//99 96//88
f 108//99 106//97 96//88
f 99//91 109//100 98//90
f 109//100 108//99 98//90
f 109//100 99//91 110//101
f 100//92 110//101 99//91
f 110//101 100//92 111//102
f 101//93 111//102 100//92
f 111//102 101//93 112//103
f 102//94 112//103 101//93
f 31//31 113//31 103//31
f 104//95 114//104 105//96
f 114//104 115//105 105//96
f 106//97 116//106 107//98
f 116//106 117//107 107//98
f 108//99 118//108 106//97
f 118//108 116//106 106//97
f 109//100 119//109 108//99
f 119//109 118//108 108//99
f 119//109 109//100 120//110
f 110//101 120//110 109//100
f 120//110 110//101 121//111
f 111//102 121//111 110//101
f 121//111 111//102 122//112
f 112//103 122//112 111//102
f 31//31 123//31 113//31
f 114//104 124//113 115//105
f 124//113 125//114 115//105
f 116//106 126//115 117//107
f 126//115 127//116 117//107
f 118//108 128//117 116//106
f 128//117 126//115 116//106
f 119//109 129//118 118//108
f 129//118 128//117 118//108
f 129//118 119//109 130//119
f 120//110 130//119 119//109
f 130//119 120//110 131//120
f 121//111 131//120 120//110
f 131//120 121//111 132//121
f 122//112 132//121 121//111
f 31//31 133//31 123//31
f 124//113 13//13 125//114
f 13//13 15//15 125//114
f 126//115 17//17 127//116
f 17//17 19//19 127//116
f 128//117 21//21 126//115
f 21//21 17//17 126//115
f 129//118 23//23 128//117
f 23//23 21//21 128//117
f 23//23 129//118 26//26
f 130//119 26//26 129//118
f 26//26 130//119 28//28
f 131//120 28//28 130//119
f 28//28 131//120 30//30
f 132//121 30//30 131//120
f 31//31 33//31 133//31
