# Blender v2.77 (sub 0) OBJ File: ''
# www.blender.org
o Cylinder
v -0.113137 0.800000 -0.113137
v -0.147821 0.800000 0.061229
v -0.061229 0.800000 0.147821
v 0.000000 0.800000 0.160000
v 0.113137 0.800000 0.113137
v 0.160000 0.800000 -0.000000
v 0.113137 0.800000 -0.113137
v 0.061229 0.800000 -0.147821
v -0.160000 0.000000 0.000000
v -0.113137 0.000000 0.113137
v -0.147821 -0.000000 -0.061229
v -0.061229 -0.000000 -0.147821
v 0.147821 0.000000 0.061229
v 0.061229 0.000000 0.147821
v 0.147821 -0.000000 -0.061229
v 0.000000 -0.000000 -0.160000
v 0.000000 0.800000 -0.160000
v 0.061229 -0.000000 -0.147821
v 0.147821 0.800000 -0.061229
v 0.113137 -0.000000 -0.113137
v 0.160000 0.000000 0.000000
v 0.061229 0.800000 0.147821
v 0.147821 0.800000 0.061229
v 0.113137 0.000000 0.113137
v -0.061229 0.800000 -0.147821
v 0.000000 0.000000 0.160000
v -0.061229 0.000000 0.147821
v -0.147821 0.800000 -0.061229
v -0.147821 0.000000 0.061229
v -0.113137 0.800000 0.113137
v -0.113137 -0.000000 -0.113137
v -0.160000 0.800000 -0.000000
v -0.169705 0.800000 -0.169706
v -0.221731 0.800000 0.091844
v -0.091844 0.800000 0.221731
v 0.000000 0.800000 0.240000
v 0.169706 0.800000 0.169706
v 0.240000 0.800000 0.000000
v 0.169706 0.800000 -0.169706
v 0.091844 0.800000 -0.221731
v -0.240000 0.000000 0.000000
v -0.169706 0.000000 0.169706
v -0.221731 -0.000000 -0.091844
v -0.091844 -0.000000 -0.221731
v 0.221731 0.000000 0.091844
v 0.091844 0.000000 0.221731
v 0.221731 -0.000000 -0.091844
v 0.000000 -0.000000 -0.240000
v 0.000000 0.800000 -0.240000
v 0.091844 -0.000000 -0.221731
v 0.221731 0.800000 -0.091844
v 0.169706 -0.000000 -0.169706
v 0.240000 0.000000 0.000000
v 0.091844 0.800000 0.221731
v 0.221731 0.800000 0.091844
v 0.169706 0.000000 0.169706
v -0.091844 0.800000 -0.221731
v 0.000000 0.000000 0.240000
v -0.091844 0.000000 0.221731
v -0.221731 0.800000 -0.091844
v -0.221731 0.000000 0.091844
v -0.169706 0.800000 0.169706
v -0.169705 -0.000000 -0.169706
v -0.240000 0.800000 0.000000
v -0.113137 0.800000 -0.113137
v -0.147821 0.800000 0.061229
v -0.061229 0.800000 0.147821
v 0.000000 0.800000 0.160000
v 0.113137 0.800000 0.113137
v 0.160000 0.800000 -0.000000
v 0.113137 0.800000 -0.113137
v 0.061229 0.800000 -0.147821
v -0.160000 0.000000 0.000000
v -0.113137 0.000000 0.113137
v -0.147821 -0.000000 -0.061229
v -0.061229 -0.000000 -0.147821
v 0.147821 0.000000 0.061229
v 0.061229 0.000000 0.147821
v 0.147821 -0.000000 -0.061229
v 0.000000 -0.000000 -0.160000
v 0.000000 0.800000 -0.160000
v 0.061229 -0.000000 -0.147821
v 0.147821 0.800000 -0.061229
v 0.113137 -0.000000 -0.113137
v 0.160000 0.000000 0.000000
v 0.061229 0.800000 0.147821
v 0.147821 0.800000 0.061229
v 0.113137 0.000000 0.113137
v -0.061229 0.800000 -0.147821
v 0.000000 0.000000 0.160000
v -0.061229 0.000000 0.147821
v -0.147821 0.800000 -0.061229
v -0.147821 0.000000 0.061229
v -0.113137 0.800000 0.113137
v -0.113137 -0.000000 -0.113137
v -0.160000 0.800000 -0.000000
v -0.169705 0.800000 -0.169706
v -0.221731 0.800000 0.091844
v -0.091844 0.800000 0.221731
v 0.000000 0.800000 0.240000
v 0.169706 0.800000 0.169706
v 0.240000 0.800000 0.000000
v 0.169706 0.800000 -0.169706
v 0.091844 0.800000 -0.221731
v -0.240000 0.000000 0.000000
v -0.169706 0.000000 0.169706
v -0.221731 -0.000000 -0.091844
v -0.091844 -0.000000 -0.221731
v 0.221731 0.000000 0.091844
v 0.091844 0.000000 0.221731
v 0.221731 -0.000000 -0.091844
v 0.000000 -0.000000 -0.240000
v 0.000000 0.800000 -0.240000
v 0.091844 -0.000000 -0.221731
v 0.221731 0.800000 -0.091844
v 0.169706 -0.000000 -0.169706
v 0.240000 0.000000 0.000000
v 0.091844 0.800000 0.221731
v 0.221731 0.800000 0.091844
v 0.169706 0.000000 0.169706
v -0.091844 0.800000 -0.221731
v 0.000000 0.000000 0.240000
v -0.091844 0.000000 0.221731
v -0.221731 0.800000 -0.091844
v -0.221731 0.000000 0.091844
v -0.169706 0.800000 0.169706
v -0.169705 -0.000000 -0.169706
v -0.240000 0.800000 0.000000
vn 0.0000 1.0000 -0.0000
vn 0.0000 -1.0000 0.0000
vn -0.5556 -0.0000 -0.8315
vn 0.1951 -0.0000 -0.9808
vn -0.8315 -0.0000 -0.5556
vn -0.8315 0.0000 0.5556
vn 0.9808 -0.0000 -0.1951
vn -0.9808 -0.0000 -0.1951
vn 0.5556 -0.0000 -0.8315
vn -0.1951 -0.0000 -0.9808
vn 0.9808 0.0000 0.1951
vn -0.1951 0.0000 0.9808
vn 0.8315 0.0000 0.5556
vn 0.1951 0.0000 0.9808
vn 0.5556 0.0000 0.8315
vn -0.5556 0.0000 0.8315
vn 0.8315 -0.0000 -0.5556
vn -0.9808 -0.0000 0.1951
s off
f 60//1 32//1 28//1
f 30//1 35//1 3//1
f 2//1 34//1 30//1
f 19//1 39//1 7//1
f 10//2 61//2 29//2
f 53//2 21//2 15//2
f 9//2 29//2 61//2
f 61//2 41//2 9//2
f 43//2 63//2 31//2
f 44//2 48//2 12//2
f 50//2 52//2 20//2
f 47//2 53//2 15//2
f 45//2 56//2 24//2
f 46//2 58//2 14//2
f 59//2 42//2 10//2
f 59//2 10//2 27//2
f 56//2 46//2 14//2
f 52//2 47//2 20//2
f 63//2 44//2 12//2
f 9//2 41//2 43//2
f 11//2 9//2 43//2
f 59//2 27//2 26//2
f 59//2 26//2 58//2
f 31//2 11//2 43//2
f 12//2 31//2 63//2
f 58//2 26//2 14//2
f 56//2 14//2 24//2
f 12//2 48//2 16//2
f 16//2 48//2 50//2
f 45//2 24//2 13//2
f 45//2 13//2 21//2
f 18//2 16//2 50//2
f 20//2 18//2 50//2
f 45//2 21//2 53//2
f 15//2 20//2 47//2
f 10//2 42//2 61//2
f 4//1 3//1 35//1
f 35//1 36//1 4//1
f 54//1 37//1 22//1
f 55//1 38//1 6//1
f 51//1 39//1 19//1
f 40//1 49//1 17//1
f 57//1 33//1 25//1
f 60//1 28//1 1//1
f 60//1 1//1 33//1
f 49//1 57//1 25//1
f 38//1 51//1 19//1
f 36//1 54//1 22//1
f 22//1 4//1 36//1
f 22//1 37//1 5//1
f 33//1 1//1 25//1
f 49//1 25//1 17//1
f 5//1 37//1 55//1
f 23//1 5//1 55//1
f 40//1 17//1 8//1
f 40//1 8//1 7//1
f 6//1 23//1 55//1
f 40//1 7//1 39//1
f 19//1 6//1 38//1
f 2//1 32//1 64//1
f 64//1 34//1 2//1
f 62//1 30//1 34//1
f 60//1 64//1 32//1
f 30//1 62//1 35//1
f 86//3 88//3 78//3
f 91//4 68//4 90//4
f 69//5 77//5 88//5
f 83//6 84//6 79//6
f 96//7 93//7 73//7
f 77//8 70//8 85//8
f 74//9 67//9 91//9
f 78//10 68//10 86//10
f 75//11 96//11 73//11
f 72//12 80//12 82//12
f 65//13 75//13 95//13
f 80//14 89//14 76//14
f 89//15 95//15 76//15
f 71//16 82//16 84//16
f 66//17 74//17 93//17
f 85//18 83//18 79//18
f 120//15 118//15 110//15
f 122//12 99//12 123//12
f 109//13 101//13 120//13
f 116//17 115//17 111//17
f 125//18 128//18 105//18
f 117//11 119//11 109//11
f 123//16 126//16 106//16
f 118//14 122//14 110//14
f 107//8 128//8 124//8
f 112//4 104//4 114//4
f 107//5 97//5 127//5
f 108//10 113//10 112//10
f 127//3 121//3 108//3
f 116//9 104//9 103//9
f 106//6 98//6 125//6
f 111//7 102//7 117//7
f 86//3 69//3 88//3
f 91//4 67//4 68//4
f 69//5 87//5 77//5
f 83//6 71//6 84//6
f 96//7 66//7 93//7
f 77//8 87//8 70//8
f 74//9 94//9 67//9
f 78//10 90//10 68//10
f 75//11 92//11 96//11
f 72//12 81//12 80//12
f 65//13 92//13 75//13
f 80//14 81//14 89//14
f 89//15 65//15 95//15
f 71//16 72//16 82//16
f 66//17 94//17 74//17
f 85//18 70//18 83//18
f 120//15 101//15 118//15
f 122//12 100//12 99//12
f 109//13 119//13 101//13
f 116//17 103//17 115//17
f 125//18 98//18 128//18
f 117//11 102//11 119//11
f 123//16 99//16 126//16
f 118//14 100//14 122//14
f 107//8 105//8 128//8
f 112//4 113//4 104//4
f 107//5 124//5 97//5
f 108//10 121//10 113//10
f 127//3 97//3 121//3
f 116//9 114//9 104//9
f 106//6 126//6 98//6
f 111//7 115//7 102//7
