# Blender v2.77 (sub 0) OBJ File: ''
# www.blender.org
o Base
v -0.268468 0.800000 -0.155000
v -0.310000 0.800000 -0.000000
v -0.268468 -0.000000 -0.155000
v -0.310000 0.000000 0.000000
v -0.155000 0.800000 -0.268468
v -0.155000 -0.000000 -0.268468
v 0.000000 0.800000 -0.310000
v 0.000000 -0.000000 -0.310000
v 0.155000 0.800000 -0.268468
v 0.155000 -0.000000 -0.268468
v 0.268468 0.800000 -0.155000
v 0.268468 -0.000000 -0.155000
v 0.310000 0.800000 -0.000000
v 0.310000 0.000000 0.000000
v 0.268468 0.800000 0.155000
v 0.268468 0.000000 0.155000
v 0.155000 0.800000 0.268468
v 0.155000 0.000000 0.268468
v 0.000000 0.800000 0.310000
v 0.000000 0.000000 0.310000
v -0.155000 0.800000 0.268468
v -0.155000 0.000000 0.268468
v -0.268468 0.800000 0.155000
v -0.268468 0.000000 0.155000
v -0.268468 -0.000000 -0.155000
v -0.310000 0.000000 0.000000
v -0.320429 -0.000000 -0.185000
v -0.370000 0.000000 0.000000
v -0.155000 -0.000000 -0.268468
v -0.185000 -0.000000 -0.320429
v 0.000000 -0.000000 -0.310000
v 0.000000 -0.000000 -0.370000
v 0.155000 -0.000000 -0.268468
v 0.185000 -0.000000 -0.320429
v 0.268468 -0.000000 -0.155000
v 0.320429 -0.000000 -0.185000
v 0.310000 0.000000 0.000000
v 0.370000 0.000000 0.000000
v 0.268468 0.000000 0.155000
v 0.320429 0.000000 0.185000
v 0.155000 0.000000 0.268468
v 0.185000 0.000000 0.320429
v 0.000000 0.000000 0.310000
v 0.000000 0.000000 0.370000
v -0.155000 0.000000 0.268468
v -0.185000 0.000000 0.320429
v -0.268468 0.000000 0.155000
v -0.320429 0.000000 0.185000
v -0.320429 -0.000000 -0.185000
v -0.370000 0.000000 0.000000
v -0.320429 0.800000 -0.185000
v -0.370000 0.800000 -0.000000
v -0.185000 -0.000000 -0.320429
v -0.185000 0.800000 -0.320429
v 0.000000 -0.000000 -0.370000
v 0.000000 0.800000 -0.370000
v 0.185000 -0.000000 -0.320429
v 0.185000 0.800000 -0.320429
v 0.320429 -0.000000 -0.185000
v 0.320429 0.800000 -0.185000
v 0.370000 0.000000 0.000000
v 0.370000 0.800000 -0.000000
v 0.320429 0.000000 0.185000
v 0.320429 0.800000 0.185000
v 0.185000 0.000000 0.320429
v 0.185000 0.800000 0.320429
v 0.000000 0.000000 0.370000
v 0.000000 0.800000 0.370000
v -0.185000 0.000000 0.320429
v -0.185000 0.800000 0.320429
v -0.320429 0.000000 0.185000
v -0.320429 0.800000 0.185000
v -0.320429 0.800000 -0.185000
v -0.370000 0.800000 -0.000000
v -0.268468 0.800000 -0.155000
v -0.310000 0.800000 -0.000000
v -0.185000 0.800000 -0.320429
v -0.155000 0.800000 -0.268468
v 0.000000 0.800000 -0.370000
v 0.000000 0.800000 -0.310000
v 0.185000 0.800000 -0.320429
v 0.155000 0.800000 -0.268468
v 0.320429 0.800000 -0.185000
v 0.268468 0.800000 -0.155000
v 0.370000 0.800000 -0.000000
v 0.310000 0.800000 -0.000000
v 0.320429 0.800000 0.185000
v 0.268468 0.800000 0.155000
v 0.185000 0.800000 0.320429
v 0.155000 0.800000 0.268468
v 0.000000 0.800000 0.370000
v 0.000000 0.800000 0.310000
v -0.185000 0.800000 0.320429
v -0.155000 0.800000 0.268468
v -0.320429 0.800000 0.185000
v -0.268468 0.800000 0.155000
v -0.216506 0.720000 -0.125000
v -0.250000 0.720000 -0.000000
v -0.216506 0.080000 -0.125000
v -0.250000 0.080000 -0.000000
v -0.125000 0.720000 -0.216506
v -0.125000 0.080000 -0.216506
v 0.000000 0.720000 -0.250000
v 0.000000 0.080000 -0.250000
v 0.125000 0.720000 -0.216506
v 0.125000 0.080000 -0.216506
v 0.216506 0.720000 -0.125000
v 0.216506 0.080000 -0.125000
v 0.250000 0.720000 -0.000000
v 0.250000 0.080000 -0.000000
v 0.216506 0.720000 0.125000
v 0.216506 0.080000 0.125000
v 0.125000 0.720000 0.216506
v 0.125000 0.080000 0.216506
v 0.000000 0.720000 0.250000
v 0.000000 0.080000 0.250000
v -0.125000 0.720000 0.216506
v -0.125000 0.080000 0.216506
v -0.216506 0.720000 0.125000
v -0.216506 0.080000 0.125000
v -0.216506 0.080000 -0.125000
v -0.250000 0.080000 -0.000000
v -0.268468 0.080000 -0.155000
v -0.310000 0.080000 -0.000000
v -0.125000 0.080000 -0.216506
v -0.155000 0.080000 -0.268468
v 0.000000 0.080000 -0.250000
v 0.000000 0.080000 -0.310000
v 0.125000 0.080000 -0.216506
v 0.155000 0.080000 -0.268468
v 0.216506 0.080000 -0.125000
v 0.268468 0.080000 -0.155000
v 0.250000 0.080000 -0.000000
v 0.310000 0.080000 -0.000000
v 0.216506 0.080000 0.125000
v 0.268468 0.080000 0.155000
v 0.125000 0.080000 0.216506
v 0.155000 0.080000 0.268468
v 0.000000 0.080000 0.250000
v 0.000000 0.080000 0.310000
v -0.125000 0.080000 0.216506
v -0.155000 0.080000 0.268468
v -0.216506 0.080000 0.125000
v -0.268468 0.080000 0.155000
v -0.268468 0.720000 -0.155000
v -0.310000 0.720000 -0.000000
v -0.216506 0.720000 -0.125000
v -0.250000 0.720000 -0.000000
v -0.155000 0.720000 -0.268468
v -0.125000 0.720000 -0.216506
v 0.000000 0.720000 -0.310000
v 0.000000 0.720000 -0.250000
v 0.155000 0.720000 -0.268468
v 0.125000 0.720000 -0.216506
v 0.268468 0.720000 -0.155000
v 0.216506 0.720000 -0.125000
v 0.310000 0.720000 -0.000000
v 0.250000 0.720000 -0.000000
v 0.268468 0.720000 0.155000
v 0.216506 0.720000 0.125000
v 0.155000 0.720000 0.268468
v 0.125000 0.720000 0.216506
v 0.000000 0.720000 0.310000
v 0.000000 0.720000 0.250000
v -0.155000 0.720000 0.268468
v -0.125000 0.720000 0.216506
v -0.268468 0.720000 0.155000
v -0.216506 0.720000 0.125000
vn 0.8181 0.0000 0.5751
vn 0.9960 0.0000 0.0890
vn 0.9071 0.0000 0.4210
vn 0.9960 -0.0000 -0.0890
vn 0.4210 0.0000 0.9071
vn 0.5751 0.0000 0.8181
vn -0.0890 0.0000 0.9960
vn 0.0890 0.0000 0.9960
vn -0.5751 0.0000 0.8181
vn -0.4210 0.0000 0.9071
vn -0.9071 0.0000 0.4210
vn -0.8181 0.0000 0.5751
vn -0.9960 -0.0000 -0.0890
vn -0.9960 0.0000 0.0890
vn -0.8181 -0.0000 -0.5751
vn -0.9071 -0.0000 -0.4210
vn -0.4210 -0.0000 -0.9071
vn -0.5751 -0.0000 -0.8181
vn 0.0890 -0.0000 -0.9960
vn -0.0890 -0.0000 -0.9960
vn 0.5751 -0.0000 -0.8181
vn 0.4210 -0.0000 -0.9071
vn 0.9071 -0.0000 -0.4210
vn 0.8181 -0.0000 -0.5751
vn -0.0000 -1.0000 0.0000
vn 0.4210 -0.0001 -0.9071
vn 0.8181 -0.0001 -0.5751
vn 0.9071 0.0001 0.4210
vn 0.0000 1.0000 0.0000
vn 0.8181 0.0000 0.5750
vn 0.9960 -0.0000 0.0889
vn 0.9960 0.0000 -0.0889
vn 0.5750 0.0000 0.8181
vn -0.0889 0.0000 0.9960
vn 0.0889 0.0000 0.9960
vn -0.5750 0.0000 0.8181
vn -0.8181 0.0000 0.5750
vn -0.9960 0.0000 -0.0889
vn -0.9960 0.0000 0.0889
vn -0.8181 -0.0000 -0.5750
vn -0.5750 -0.0000 -0.8181
vn 0.0889 -0.0000 -0.9960
vn -0.0889 -0.0000 -0.9960
vn 0.5750 -0.0000 -0.8181
vn 0.8181 -0.0000 -0.5750
s 1
f 1//1 2//2 3//3
f 3//3 2//2 4//4
f 5//5 1//1 6//6
f 6//6 1//1 3//3
f 7//7 5//5 8//8
f 8//8 5//5 6//6
f 9//9 7//7 10//10
f 10//10 7//7 8//8
f 11//11 9//9 12//12
f 12//12 9//9 10//10
f 13//13 11//11 14//14
f 14//14 11//11 12//12
f 15//15 13//13 16//16
f 16//16 13//13 14//14
f 17//17 15//15 18//18
f 18//18 15//15 16//16
f 19//19 17//17 20//20
f 20//20 17//17 18//18
f 21//21 19//19 22//22
f 22//22 19//19 20//20
f 23//23 21//21 24//24
f 24//24 21//21 22//22
f 2//2 23//23 4//4
f 4//4 23//23 24//24
f 25//25 26//25 27//25
f 27//25 26//25 28//25
f 29//25 25//25 30//25
f 30//25 25//25 27//25
f 31//25 29//25 32//25
f 32//25 29//25 30//25
f 33//25 31//25 34//25
f 34//25 31//25 32//25
f 35//25 33//25 36//25
f 36//25 33//25 34//25
f 37//25 35//25 38//25
f 38//25 35//25 36//25
f 39//25 37//25 40//25
f 40//25 37//25 38//25
f 41//25 39//25 42//25
f 42//25 39//25 40//25
f 43//25 41//25 44//25
f 44//25 41//25 42//25
f 45//25 43//25 46//25
f 46//25 43//25 44//25
f 47//25 45//25 48//25
f 48//25 45//25 46//25
f 26//25 47//25 28//25
f 28//25 47//25 48//25
f 49//15 50//13 51//16
f 51//16 50//13 52//14
f 53//17 49//15 54//18
f 54//18 49//15 51//16
f 55//19 53//17 56//20
f 56//20 53//17 54//18
f 57//21 55//19 58//26
f 58//26 55//19 56//20
f 59//23 57//21 60//27
f 60//27 57//21 58//26
f 61//2 59//23 62//4
f 62//4 59//23 60//27
f 63//1 61//2 64//28
f 64//28 61//2 62//4
f 65//5 63//1 66//6
f 66//6 63//1 64//28
f 67//7 65//5 68//8
f 68//8 65//5 66//6
f 69//9 67//7 70//10
f 70//10 67//7 68//8
f 71//11 69//9 72//12
f 72//12 69//9 70//10
f 50//13 71//11 52//14
f 52//14 71//11 72//12
f 73//29 74//29 75//29
f 75//29 74//29 76//29
f 77//29 73//29 78//29
f 78//29 73//29 75//29
f 79//29 77//29 80//29
f 80//29 77//29 78//29
f 81//29 79//29 82//29
f 82//29 79//29 80//29
f 83//29 81//29 84//29
f 84//29 81//29 82//29
f 85//29 83//29 86//29
f 86//29 83//29 84//29
f 87//29 85//29 88//29
f 88//29 85//29 86//29
f 89//29 87//29 90//29
f 90//29 87//29 88//29
f 91//29 89//29 92//29
f 92//29 89//29 90//29
f 93//29 91//29 94//29
f 94//29 91//29 92//29
f 95//29 93//29 96//29
f 96//29 93//29 94//29
f 74//29 95//29 76//29
f 76//29 95//29 96//29
f 97//30 98//31 99//3
f 99//3 98//31 100//32
f 101//5 97//30 102//33
f 102//33 97//30 99//3
f 103//34 101//5 104//35
f 104//35 101//5 102//33
f 105//36 103//34 106//10
f 106//10 103//34 104//35
f 107//11 105//36 108//37
f 108//37 105//36 106//10
f 109//38 107//11 110//39
f 110//39 107//11 108//37
f 111//40 109//38 112//16
f 112//16 109//38 110//39
f 113//17 111//40 114//41
f 114//41 111//40 112//16
f 115//42 113//17 116//43
f 116//43 113//17 114//41
f 117//44 115//42 118//22
f 118//22 115//42 116//43
f 119//23 117//44 120//45
f 120//45 117//44 118//22
f 98//31 119//23 100//32
f 100//32 119//23 120//45
f 121//25 122//25 123//25
f 123//25 122//25 124//25
f 125//25 121//25 126//25
f 126//25 121//25 123//25
f 127//25 125//25 128//25
f 128//25 125//25 126//25
f 129//25 127//25 130//25
f 130//25 127//25 128//25
f 131//25 129//25 132//25
f 132//25 129//25 130//25
f 133//25 131//25 134//25
f 134//25 131//25 132//25
f 135//25 133//25 136//25
f 136//25 133//25 134//25
f 137//25 135//25 138//25
f 138//25 135//25 136//25
f 139//25 137//25 140//25
f 140//25 137//25 138//25
f 141//25 139//25 142//25
f 142//25 139//25 140//25
f 143//25 141//25 144//25
f 144//25 141//25 142//25
f 122//25 143//25 124//25
f 124//25 143//25 144//25
f 145//29 146//29 147//29
f 147//29 146//29 148//29
f 149//29 145//29 150//29
f 150//29 145//29 147//29
f 151//29 149//29 152//29
f 152//29 149//29 150//29
f 153//29 151//29 154//29
f 154//29 151//29 152//29
f 155//29 153//29 156//29
f 156//29 153//29 154//29
f 157//29 155//29 158//29
f 158//29 155//29 156//29
f 159//29 157//29 160//29
f 160//29 157//29 158//29
f 161//29 159//29 162//29
f 162//29 159//29 160//29
f 163//29 161//29 164//29
f 164//29 161//29 162//29
f 165//29 163//29 166//29
f 166//29 163//29 164//29
f 167//29 165//29 168//29
f 168//29 165//29 166//29
f 146//29 167//29 148//29
f 148//29 167//29 168//29
