# Blender v2.77 (sub 0) OBJ File: ''
# www.blender.org
o Cylinder
v 0.000000 0.800000 -0.150000
v -0.029264 0.800000 -0.147118
v -0.057403 0.800000 -0.138582
v -0.083336 0.800000 -0.124720
v -0.106066 0.800000 -0.106066
v -0.124720 0.800000 -0.083336
v -0.138582 0.800000 -0.057403
v -0.147118 0.800000 -0.029264
v -0.150000 0.800000 -0.000000
v -0.147118 0.800000 0.029264
v -0.138582 0.800000 0.057402
v -0.124720 0.800000 0.083336
v -0.106066 0.800000 0.106066
v -0.083336 0.800000 0.124720
v -0.057402 0.800000 0.138582
v -0.029264 0.800000 0.147118
v 0.000000 0.800000 0.150000
v 0.029264 0.800000 0.147118
v 0.057403 0.800000 0.138582
v 0.083336 0.800000 0.124720
v 0.106066 0.800000 0.106066
v 0.124721 0.800000 0.083335
v 0.138582 0.800000 0.057402
v 0.147118 0.800000 0.029263
v 0.150000 0.800000 -0.000000
v 0.147118 0.800000 -0.029264
v 0.138582 0.800000 -0.057403
v 0.124720 0.800000 -0.083336
v 0.106066 0.800000 -0.106066
v 0.083335 0.800000 -0.124721
v 0.057402 0.800000 -0.138582
v 0.029263 0.800000 -0.147118
v 0.000000 0.800000 0.000003
v 0.000000 0.000000 0.150000
v -0.029264 0.000000 0.147118
v -0.057403 0.000000 0.138582
v -0.083336 0.000000 0.124720
v -0.106066 0.000000 0.106066
v -0.124720 0.000000 0.083336
v -0.138582 0.000000 0.057403
v -0.147118 0.000000 0.029264
v -0.150000 0.000000 0.000000
v -0.147118 0.000000 -0.029264
v -0.138582 0.000000 -0.057402
v -0.124720 0.000000 -0.083336
v -0.106066 0.000000 -0.106066
v -0.083336 0.000000 -0.124720
v -0.057402 0.000000 -0.138582
v -0.029264 0.000000 -0.147118
v 0.000000 0.000000 -0.150000
v 0.029264 0.000000 -0.147118
v 0.057403 0.000000 -0.138582
v 0.083336 0.000000 -0.124720
v 0.106066 0.000000 -0.106066
v 0.124721 0.000000 -0.083335
v 0.138582 0.000000 -0.057402
v 0.147118 0.000000 -0.029263
v 0.150000 0.000000 0.000000
v 0.147118 0.000000 0.029264
v 0.138582 0.000000 0.057403
v 0.124720 0.000000 0.083336
v 0.106066 0.000000 0.106066
v 0.083335 0.000000 0.124721
v 0.057402 0.000000 0.138582
v 0.029263 0.000000 0.147118
v 0.000000 0.000000 -0.000003
v 0.000000 0.000000 0.150000
v 0.000000 0.800000 0.150000
v -0.029264 0.000000 0.147118
v -0.029264 0.800000 0.147118
v -0.057403 0.000000 0.138582
v -0.057403 0.800000 0.138582
v -0.083336 0.000000 0.124720
v -0.083336 0.800000 0.124720
v -0.106066 0.000000 0.106066
v -0.106066 0.800000 0.106066
v -0.124720 0.000000 0.083336
v -0.124720 0.800000 0.083336
v -0.138582 0.000000 0.057403
v -0.138582 0.800000 0.057403
v -0.147118 0.000000 0.029264
v -0.147118 0.800000 0.029264
v -0.150000 0.000000 0.000000
v -0.150000 0.800000 0.000000
v -0.147118 0.000000 -0.029264
v -0.147118 0.800000 -0.029264
v -0.138582 0.000000 -0.057402
v -0.138582 0.800000 -0.057402
v -0.124720 0.000000 -0.083336
v -0.124720 0.800000 -0.083336
v -0.106066 0.000000 -0.106066
v -0.106066 0.800000 -0.106066
v -0.083336 0.000000 -0.124720
v -0.083336 0.800000 -0.124720
v -0.057402 0.000000 -0.138582
v -0.057402 0.800000 -0.138582
v -0.029264 0.000000 -0.147118
v -0.029264 0.800000 -0.147118
v 0.000000 0.000000 -0.150000
v 0.000000 0.800000 -0.150000
v 0.029264 0.000000 -0.147118
v 0.029264 0.800000 -0.147118
v 0.057403 0.000000 -0.138582
v 0.057403 0.800000 -0.138582
v 0.083336 0.000000 -0.124720
v 0.083336 0.800000 -0.124720
v 0.106066 0.000000 -0.106066
v 0.106066 0.800000 -0.106066
v 0.124721 0.000000 -0.083335
v 0.124721 0.800000 -0.083335
v 0.138582 0.000000 -0.057402
v 0.138582 0.800000 -0.057402
v 0.147118 0.000000 -0.029263
v 0.147118 0.800000 -0.029263
v 0.150000 0.000000 0.000000
v 0.150000 0.800000 0.000000
v 0.147118 0.000000 0.029264
v 0.147118 0.800000 0.029264
v 0.138582 0.000000 0.057403
v 0.138582 0.800000 0.057403
v 0.124720 0.000000 0.083336
v 0.124720 0.800000 0.083336
v 0.106066 0.000000 0.106066
v 0.106066 0.800000 0.106066
v 0.083335 0.000000 0.124721
v 0.083335 0.800000 0.124721
v 0.057402 0.000000 0.138582
v 0.057402 0.800000 0.138582
v 0.029263 0.000000 0.147118
v 0.029263 0.800000 0.147118
vn 0.0000 1.0000 0.0000
vn 0.0000 -1.0000 0.0000
vn -0.0980 0.0000 0.9952
vn -0.2903 0.0000 0.9569
vn -0.4714 0.0000 0.8819
vn -0.6344 0.0000 0.7730
vn -0.7730 0.0000 0.6344
vn -0.8819 0.0000 0.4714
vn -0.9569 0.0000 0.2903
vn -0.9952 0.0000 0.0980
vn -0.9952 0.0000 -0.0980
vn -0.9569 0.0000 -0.2903
vn -0.8819 0.0000 -0.4714
vn -0.7730 0.0000 -0.6344
vn -0.6344 0.0000 -0.7730
vn -0.4714 0.0000 -0.8819
vn -0.2903 0.0000 -0.9569
vn -0.0980 0.0000 -0.9952
vn 0.0980 0.0000 -0.9952
vn 0.2903 0.0000 -0.9569
vn 0.4714 0.0000 -0.8819
vn 0.6344 0.0000 -0.7730
vn 0.7730 0.0000 -0.6344
vn 0.8819 0.0000 -0.4714
vn 0.9569 0.0000 -0.2903
vn 0.9952 0.0000 -0.0980
vn 0.9952 0.0000 0.0980
vn 0.9569 0.0000 0.2903
vn 0.8819 0.0000 0.4714
vn 0.7730 0.0000 0.6344
vn 0.6344 0.0000 0.7730
vn 0.4714 0.0000 0.8819
vn 0.2903 0.0000 0.9569
vn 0.0980 0.0000 0.9952
s off
f 32//1 1//1 33//1
f 29//1 30//1 33//1
f 13//1 14//1 33//1
f 33//1 25//1 26//1
f 5//1 6//1 33//1
f 21//1 22//1 33//1
f 26//1 27//1 33//1
f 28//1 29//1 33//1
f 30//1 31//1 33//1
f 32//1 33//1 31//1
f 27//1 28//1 33//1
f 16//1 17//1 33//1
f 33//1 9//1 10//1
f 10//1 11//1 33//1
f 12//1 13//1 33//1
f 14//1 15//1 33//1
f 16//1 33//1 15//1
f 11//1 12//1 33//1
f 8//1 9//1 33//1
f 33//1 1//1 2//1
f 2//1 3//1 33//1
f 4//1 5//1 33//1
f 6//1 7//1 33//1
f 8//1 33//1 7//1
f 3//1 4//1 33//1
f 24//1 25//1 33//1
f 33//1 17//1 18//1
f 18//1 19//1 33//1
f 20//1 21//1 33//1
f 22//1 23//1 33//1
f 24//1 33//1 23//1
f 19//1 20//1 33//1
f 65//2 34//2 66//2
f 62//2 63//2 66//2
f 46//2 47//2 66//2
f 66//2 58//2 59//2
f 38//2 39//2 66//2
f 54//2 55//2 66//2
f 59//2 60//2 66//2
f 61//2 62//2 66//2
f 63//2 64//2 66//2
f 65//2 66//2 64//2
f 60//2 61//2 66//2
f 49//2 50//2 66//2
f 66//2 42//2 43//2
f 43//2 44//2 66//2
f 45//2 46//2 66//2
f 47//2 48//2 66//2
f 49//2 66//2 48//2
f 44//2 45//2 66//2
f 41//2 42//2 66//2
f 66//2 34//2 35//2
f 35//2 36//2 66//2
f 37//2 38//2 66//2
f 39//2 40//2 66//2
f 41//2 66//2 40//2
f 36//2 37//2 66//2
f 57//2 58//2 66//2
f 66//2 50//2 51//2
f 51//2 52//2 66//2
f 53//2 54//2 66//2
f 55//2 56//2 66//2
f 57//2 66//2 56//2
f 52//2 53//2 66//2
f 68//3 69//3 67//3
f 70//4 71//4 69//4
f 72//5 73//5 71//5
f 74//6 75//6 73//6
f 76//7 77//7 75//7
f 78//8 79//8 77//8
f 80//9 81//9 79//9
f 82//10 83//10 81//10
f 84//11 85//11 83//11
f 86//12 87//12 85//12
f 88//13 89//13 87//13
f 90//14 91//14 89//14
f 92//15 93//15 91//15
f 94//16 95//16 93//16
f 96//17 97//17 95//17
f 98//18 99//18 97//18
f 100//19 101//19 99//19
f 102//20 103//20 101//20
f 104//21 105//21 103//21
f 106//22 107//22 105//22
f 108//23 109//23 107//23
f 110//24 111//24 109//24
f 112//25 113//25 111//25
f 114//26 115//26 113//26
f 116//27 117//27 115//27
f 118//28 119//28 117//28
f 120//29 121//29 119//29
f 122//30 123//30 121//30
f 124//31 125//31 123//31
f 126//32 127//32 125//32
f 128//33 129//33 127//33
f 130//34 67//34 129//34
f 68//3 70//3 69//3
f 70//4 72//4 71//4
f 72//5 74//5 73//5
f 74//6 76//6 75//6
f 76//7 78//7 77//7
f 78//8 80//8 79//8
f 80//9 82//9 81//9
f 82//10 84//10 83//10
f 84//11 86//11 85//11
f 86//12 88//12 87//12
f 88//13 90//13 89//13
f 90//14 92//14 91//14
f 92//15 94//15 93//15
f 94//16 96//16 95//16
f 96//17 98//17 97//17
f 98//18 100//18 99//18
f 100//19 102//19 101//19
f 102//20 104//20 103//20
f 104//21 106//21 105//21
f 106//22 108//22 107//22
f 108//23 110//23 109//23
f 110//24 112//24 111//24
f 112//25 114//25 113//25
f 114//26 116//26 115//26
f 116//27 118//27 117//27
f 118//28 120//28 119//28
f 120//29 122//29 121//29
f 122//30 124//30 123//30
f 124//31 126//31 125//31
f 126//32 128//32 127//32
f 128//33 130//33 129//33
f 130//34 68//34 67//34
