# Blender v2.80 (sub 75) OBJ File: ''
# www.blender.org
mtllib BarFemale.mtl
o Cylinder
v 0.000000 1.000000 -0.240000
v 0.091844 0.000000 -0.221731
v 0.000000 0.000000 -0.240000
v 0.091844 1.000000 -0.221731
v 0.169706 0.000000 -0.169706
v 0.169706 1.000000 -0.169705
v 0.221731 0.000000 -0.091844
v 0.221731 1.000000 -0.091844
v 0.240000 -0.000000 0.000000
v 0.240000 1.000000 0.000000
v 0.221731 -0.000000 0.091844
v 0.221731 1.000000 0.091844
v 0.169706 -0.000000 0.169706
v 0.169706 1.000000 0.169706
v 0.091844 -0.000000 0.221731
v 0.091844 1.000000 0.221731
v 0.000000 -0.000000 0.240000
v 0.000000 1.000000 0.240000
v -0.091844 -0.000000 0.221731
v -0.091844 1.000000 0.221731
v -0.169706 -0.000000 0.169706
v -0.169706 1.000000 0.169706
v -0.221731 -0.000000 0.091844
v -0.221731 1.000000 0.091844
v -0.240000 -0.000000 0.000000
v -0.240000 1.000000 0.000000
v -0.221731 0.000000 -0.091844
v -0.221731 1.000000 -0.091844
v -0.169706 0.000000 -0.169706
v -0.169706 1.000000 -0.169705
v -0.091843 0.000000 -0.221731
v -0.091843 1.000000 -0.221731
v 0.000000 1.000000 -0.160000
v 0.000000 0.000000 -0.160000
v 0.061229 0.000000 -0.147821
v 0.061229 1.000000 -0.147821
v 0.113137 0.000000 -0.113137
v 0.113137 1.000000 -0.113136
v 0.147821 0.000000 -0.061229
v 0.147821 1.000000 -0.061229
v 0.160000 -0.000000 0.000000
v 0.160000 1.000000 0.000000
v 0.147821 -0.000000 0.061229
v 0.147821 1.000000 0.061230
v 0.113137 -0.000000 0.113137
v 0.113137 1.000000 0.113138
v 0.061229 -0.000000 0.147821
v 0.061229 1.000000 0.147822
v 0.000000 -0.000000 0.160000
v 0.000000 1.000000 0.160000
v -0.061229 -0.000000 0.147821
v -0.061229 1.000000 0.147822
v -0.113137 -0.000000 0.113137
v -0.113137 1.000000 0.113138
v -0.147821 -0.000000 0.061229
v -0.147821 1.000000 0.061230
v -0.160000 -0.000000 0.000000
v -0.160000 1.000000 0.000000
v -0.147821 0.000000 -0.061229
v -0.147821 1.000000 -0.061229
v -0.113137 0.000000 -0.113137
v -0.113137 1.000000 -0.113136
v -0.061229 0.000000 -0.147821
v -0.061229 1.000000 -0.147821
v 0.169706 1.000000 -0.169705
v 0.091844 1.000000 -0.221731
v 0.113137 1.000000 -0.113136
v 0.169706 1.000000 0.169706
v 0.113137 1.000000 0.113138
v 0.061229 1.000000 0.147822
v 0.091844 1.000000 0.221731
v -0.113137 1.000000 -0.113136
v -0.061229 1.000000 -0.147821
v -0.091843 1.000000 -0.221731
v 0.000000 1.000000 -0.240000
v 0.061229 1.000000 -0.147821
v -0.169706 1.000000 -0.169705
v -0.221731 1.000000 -0.091844
v -0.147821 1.000000 -0.061229
v -0.240000 1.000000 0.000000
v -0.160000 1.000000 0.000000
v -0.221731 1.000000 0.091844
v -0.147821 1.000000 0.061230
v -0.169706 1.000000 0.169706
v -0.091844 1.000000 0.221731
v -0.061229 1.000000 0.147822
v 0.000000 1.000000 0.240000
v 0.000000 1.000000 0.160000
v 0.221731 1.000000 -0.091844
v 0.221731 1.000000 0.091844
v 0.240000 1.000000 0.000000
v 0.147821 1.000000 0.061230
v 0.160000 1.000000 0.000000
v -0.113137 1.000000 0.113138
v 0.147821 1.000000 -0.061229
v 0.000000 1.000000 -0.160000
v 0.000000 0.000000 -0.240000
v 0.091844 0.000000 -0.221731
v 0.061229 0.000000 -0.147821
v 0.169706 0.000000 -0.169706
v 0.113137 0.000000 -0.113137
v -0.113137 -0.000000 0.113137
v -0.061229 -0.000000 0.147821
v -0.091844 -0.000000 0.221731
v 0.000000 0.000000 -0.160000
v -0.169706 0.000000 -0.169706
v -0.091843 0.000000 -0.221731
v -0.061229 0.000000 -0.147821
v -0.240000 -0.000000 0.000000
v -0.221731 0.000000 -0.091844
v -0.147821 0.000000 -0.061229
v -0.169706 -0.000000 0.169706
v -0.221731 -0.000000 0.091844
v -0.147821 -0.000000 0.061229
v -0.160000 -0.000000 0.000000
v 0.000000 -0.000000 0.240000
v 0.169706 -0.000000 0.169706
v 0.091844 -0.000000 0.221731
v 0.113137 -0.000000 0.113137
v 0.061229 -0.000000 0.147821
v 0.240000 -0.000000 0.000000
v 0.221731 -0.000000 0.091844
v 0.147821 -0.000000 0.061229
v 0.221731 0.000000 -0.091844
v 0.147821 0.000000 -0.061229
v 0.160000 -0.000000 0.000000
v -0.113137 0.000000 -0.113137
v 0.000000 -0.000000 0.160000
vn -0.0000 0.0000 -1.0000
vn 0.3827 0.0000 -0.9239
vn 0.7071 0.0000 -0.7071
vn 0.9239 0.0000 -0.3827
vn 1.0000 0.0000 0.0000
vn 0.9239 -0.0000 0.3827
vn 0.7071 -0.0000 0.7071
vn 0.3827 -0.0000 0.9239
vn -0.0000 -0.0000 1.0000
vn -0.3827 -0.0000 0.9239
vn -0.7071 -0.0000 0.7071
vn -0.9239 -0.0000 0.3827
vn -1.0000 -0.0000 0.0000
vn -0.9239 0.0000 -0.3827
vn -0.7071 0.0000 -0.7071
vn -0.3827 0.0000 -0.9239
vn 0.0000 1.0000 0.0000
vn 0.0000 -1.0000 -0.0000
usemtl Default_OBJ
s 1
f 1//1 2//2 3//1
f 4//2 5//3 2//2
f 6//3 7//4 5//3
f 8//4 9//5 7//4
f 10//5 11//6 9//5
f 12//6 13//7 11//6
f 14//7 15//8 13//7
f 16//8 17//9 15//8
f 18//9 19//10 17//9
f 20//10 21//11 19//10
f 22//11 23//12 21//11
f 24//12 25//13 23//12
f 26//13 27//14 25//13
f 28//14 29//15 27//14
f 30//15 31//16 29//15
f 32//16 3//1 31//16
f 1//1 4//2 2//2
f 4//2 6//3 5//3
f 6//3 8//4 7//4
f 8//4 10//5 9//5
f 10//5 12//6 11//6
f 12//6 14//7 13//7
f 14//7 16//8 15//8
f 16//8 18//9 17//9
f 18//9 20//10 19//10
f 20//10 22//11 21//11
f 22//11 24//12 23//12
f 24//12 26//13 25//13
f 26//13 28//14 27//14
f 28//14 30//15 29//15
f 30//15 32//16 31//16
f 32//16 1//1 3//1
f 33//9 34//9 35//10
f 36//10 35//10 37//11
f 38//11 37//11 39//12
f 40//12 39//12 41//13
f 42//13 41//13 43//14
f 44//14 43//14 45//15
f 46//15 45//15 47//16
f 48//16 47//16 49//1
f 50//1 49//1 51//2
f 52//2 51//2 53//3
f 54//3 53//3 55//4
f 56//4 55//4 57//5
f 58//5 57//5 59//6
f 60//6 59//6 61//7
f 62//7 61//7 63//8
f 64//8 63//8 34//9
f 33//9 35//10 36//10
f 36//10 37//11 38//11
f 38//11 39//12 40//12
f 40//12 41//13 42//13
f 42//13 43//14 44//14
f 44//14 45//15 46//15
f 46//15 47//16 48//16
f 48//16 49//1 50//1
f 50//1 51//2 52//2
f 52//2 53//3 54//3
f 54//3 55//4 56//4
f 56//4 57//5 58//5
f 58//5 59//6 60//6
f 60//6 61//7 62//7
f 62//7 63//8 64//8
f 64//8 34//9 33//9
f 65//17 66//17 67//17
f 68//17 69//17 70//17
f 68//17 70//17 71//17
f 72//17 73//17 74//17
f 66//17 75//17 76//17
f 67//17 66//17 76//17
f 75//17 74//17 73//17
f 74//17 77//17 72//17
f 77//17 78//17 79//17
f 78//17 80//17 81//17
f 80//17 82//17 83//17
f 82//17 84//17 83//17
f 84//17 85//17 86//17
f 85//17 87//17 88//17
f 87//17 71//17 70//17
f 87//17 70//17 88//17
f 89//17 65//17 67//17
f 90//17 91//17 92//17
f 91//17 89//17 93//17
f 92//17 91//17 93//17
f 69//17 68//17 92//17
f 68//17 90//17 92//17
f 85//17 88//17 86//17
f 84//17 86//17 94//17
f 84//17 94//17 83//17
f 95//17 93//17 89//17
f 67//17 95//17 89//17
f 80//17 83//17 81//17
f 78//17 81//17 79//17
f 96//17 76//17 75//17
f 73//17 96//17 75//17
f 77//17 79//17 72//17
f 97//18 98//18 99//18
f 100//18 101//18 99//18
f 100//18 99//18 98//18
f 102//18 103//18 104//18
f 97//18 99//18 105//18
f 106//18 107//18 108//18
f 107//18 97//18 105//18
f 109//18 110//18 111//18
f 110//18 106//18 111//18
f 112//18 113//18 114//18
f 113//18 109//18 115//18
f 116//18 104//18 103//18
f 104//18 112//18 102//18
f 117//18 118//18 119//18
f 118//18 116//18 120//18
f 119//18 118//18 120//18
f 121//18 122//18 123//18
f 122//18 117//18 123//18
f 100//18 124//18 125//18
f 124//18 121//18 126//18
f 125//18 101//18 100//18
f 126//18 125//18 124//18
f 107//18 105//18 108//18
f 123//18 126//18 121//18
f 106//18 108//18 127//18
f 106//18 127//18 111//18
f 119//18 123//18 117//18
f 109//18 111//18 115//18
f 113//18 115//18 114//18
f 128//18 120//18 116//18
f 103//18 128//18 116//18
f 112//18 114//18 102//18
