# Blender v2.80 (sub 75) OBJ File: ''
# www.blender.org
mtllib Cone.mtl
o Cone_Cone.001
v 0.000000 -0.500000 -0.500000
v 0.097545 -0.500000 -0.490393
v 0.191342 -0.500000 -0.461940
v 0.277785 -0.500000 -0.415735
v 0.353553 -0.500000 -0.353553
v 0.415735 -0.500000 -0.277785
v 0.461940 -0.500000 -0.191342
v 0.490393 -0.500000 -0.097545
v 0.500000 -0.500000 -0.000000
v 0.490393 -0.500000 0.097545
v 0.461940 -0.500000 0.191342
v 0.415735 -0.500000 0.277785
v 0.353553 -0.500000 0.353553
v 0.277785 -0.500000 0.415735
v 0.191342 -0.500000 0.461940
v 0.097545 -0.500000 0.490393
v -0.000000 -0.500000 0.500000
v -0.097545 -0.500000 0.490393
v -0.191342 -0.500000 0.461940
v -0.277785 -0.500000 0.415735
v -0.353554 -0.500000 0.353553
v -0.415735 -0.500000 0.277785
v -0.461940 -0.500000 0.191341
v 0.000000 0.500000 0.000000
v -0.490393 -0.500000 0.097545
v -0.500000 -0.500000 -0.000000
v -0.490393 -0.500000 -0.097546
v -0.461940 -0.500000 -0.191342
v -0.415734 -0.500000 -0.277786
v -0.353553 -0.500000 -0.353554
v -0.277785 -0.500000 -0.415735
v -0.191341 -0.500000 -0.461940
v -0.097544 -0.500000 -0.490393
v 0.000000 -0.500000 -0.500000
v 0.097545 -0.500000 -0.490393
v 0.191342 -0.500000 -0.461940
v 0.277785 -0.500000 -0.415735
v 0.353553 -0.500000 -0.353553
v 0.415735 -0.500000 -0.277785
v 0.461940 -0.500000 -0.191342
v 0.490393 -0.500000 -0.097545
v 0.500000 -0.500000 -0.000000
v 0.490393 -0.500000 0.097545
v 0.461940 -0.500000 0.191342
v 0.415735 -0.500000 0.277785
v 0.353553 -0.500000 0.353553
v 0.277785 -0.500000 0.415735
v 0.191342 -0.500000 0.461940
v 0.097545 -0.500000 0.490393
v -0.000000 -0.500000 0.500000
v -0.097545 -0.500000 0.490393
v -0.191342 -0.500000 0.461940
v -0.277785 -0.500000 0.415735
v -0.353554 -0.500000 0.353553
v -0.415735 -0.500000 0.277785
v -0.461940 -0.500000 0.191341
v -0.490393 -0.500000 0.097545
v -0.500000 -0.500000 -0.000000
v -0.490393 -0.500000 -0.097546
v -0.461940 -0.500000 -0.191342
v -0.415734 -0.500000 -0.277786
v -0.353553 -0.500000 -0.353554
v -0.277785 -0.500000 -0.415735
v -0.191341 -0.500000 -0.461940
v -0.097544 -0.500000 -0.490393
v -0.000000 -0.500000 -0.000000
vt 0.658156 0.471731
vt 0.703179 0.485389
vt 0.750000 0.250000
vt 0.750000 0.490000
vt 0.528269 0.158156
vt 0.514611 0.203179
vt 0.971731 0.341844
vt 0.985388 0.296822
vt 0.841844 0.028269
vt 0.796822 0.014612
vt 0.510000 0.250000
vt 0.514612 0.296822
vt 0.528269 0.341844
vt 0.550447 0.383337
vt 0.580295 0.419706
vt 0.616663 0.449553
vt 0.750000 0.010000
vt 0.703178 0.014612
vt 0.658156 0.028269
vt 0.616663 0.050447
vt 0.580294 0.080294
vt 0.550447 0.116663
vt 0.990000 0.250000
vt 0.796822 0.485388
vt 0.841844 0.471731
vt 0.883337 0.449553
vt 0.919706 0.419706
vt 0.949553 0.383337
vt 0.985388 0.203178
vt 0.971731 0.158156
vt 0.949553 0.116663
vt 0.919706 0.080294
vt 0.883337 0.050447
vt 0.250000 0.490000
vt 0.250000 0.250000
vt 0.296822 0.485388
vt 0.341844 0.471731
vt 0.383337 0.449553
vt 0.419706 0.419706
vt 0.449553 0.383337
vt 0.471731 0.341844
vt 0.485388 0.296822
vt 0.490000 0.250000
vt 0.485388 0.203178
vt 0.471731 0.158156
vt 0.449553 0.116663
vt 0.419706 0.080294
vt 0.383337 0.050447
vt 0.341844 0.028269
vt 0.296822 0.014612
vt 0.250000 0.010000
vt 0.203178 0.014612
vt 0.158156 0.028269
vt 0.116663 0.050447
vt 0.080294 0.080294
vt 0.050447 0.116663
vt 0.028269 0.158156
vt 0.014611 0.203179
vt 0.010000 0.250000
vt 0.014612 0.296822
vt 0.028269 0.341844
vt 0.050447 0.383337
vt 0.080295 0.419706
vt 0.116663 0.449553
vt 0.158156 0.471731
vt 0.203179 0.485389
vn 0.0000 -1.0000 0.0000
vn 0.0000 0.4472 -0.8944
vn 0.0000 1.0000 0.0000
vn 0.1745 0.4472 -0.8772
vn 0.3423 0.4472 -0.8263
vn 0.4969 0.4472 -0.7437
vn 0.6324 0.4472 -0.6324
vn 0.7437 0.4472 -0.4969
vn 0.8263 0.4472 -0.3423
vn 0.8772 0.4472 -0.1745
vn 0.8944 0.4472 0.0000
vn 0.8772 0.4472 0.1745
vn 0.8263 0.4472 0.3423
vn 0.7437 0.4472 0.4969
vn 0.6324 0.4472 0.6324
vn 0.4969 0.4472 0.7437
vn 0.3423 0.4472 0.8263
vn 0.1745 0.4472 0.8772
vn 0.0000 0.4472 0.8944
vn -0.1745 0.4472 0.8772
vn -0.3423 0.4472 0.8263
vn -0.4969 0.4472 0.7437
vn -0.6324 0.4472 0.6324
vn -0.7437 0.4472 0.4969
vn -0.8263 0.4472 0.3423
vn -0.8772 0.4472 0.1745
vn -0.8944 0.4472 0.0000
vn -0.8772 0.4472 -0.1745
vn -0.8263 0.4472 -0.3423
vn -0.7437 0.4472 -0.4969
vn -0.6324 0.4472 -0.6324
vn -0.4969 0.4472 -0.7437
vn -0.3423 0.4472 -0.8263
vn -0.1745 0.4472 -0.8772
usemtl None
s off
f 64/1/1 65/2/1 66/3/1
f 65/2/1 34/4/1 66/3/1
f 56/5/1 57/6/1 66/3/1
f 40/7/1 41/8/1 66/3/1
f 48/9/1 49/10/1 66/3/1
f 66/3/1 58/11/1 59/12/1
f 59/12/1 60/13/1 66/3/1
f 60/13/1 61/14/1 66/3/1
f 61/14/1 62/15/1 66/3/1
f 62/15/1 63/16/1 66/3/1
f 63/16/1 64/1/1 66/3/1
f 57/6/1 58/11/1 66/3/1
f 66/3/1 50/17/1 51/18/1
f 51/18/1 52/19/1 66/3/1
f 52/19/1 53/20/1 66/3/1
f 53/20/1 54/21/1 66/3/1
f 54/21/1 55/22/1 66/3/1
f 55/22/1 56/5/1 66/3/1
f 42/23/1 66/3/1 41/8/1
f 66/3/1 34/4/1 35/24/1
f 36/25/1 66/3/1 35/24/1
f 36/25/1 37/26/1 66/3/1
f 37/26/1 38/27/1 66/3/1
f 38/27/1 39/28/1 66/3/1
f 39/28/1 40/7/1 66/3/1
f 49/10/1 50/17/1 66/3/1
f 66/3/1 42/23/1 43/29/1
f 43/29/1 44/30/1 66/3/1
f 44/30/1 45/31/1 66/3/1
f 45/31/1 46/32/1 66/3/1
f 46/32/1 47/33/1 66/3/1
f 47/33/1 48/9/1 66/3/1
s 1
f 1/34/2 24/35/3 2/36/4
f 2/36/4 24/35/3 3/37/5
f 3/37/5 24/35/3 4/38/6
f 4/38/6 24/35/3 5/39/7
f 5/39/7 24/35/3 6/40/8
f 6/40/8 24/35/3 7/41/9
f 7/41/9 24/35/3 8/42/10
f 8/42/10 24/35/3 9/43/11
f 9/43/11 24/35/3 10/44/12
f 10/44/12 24/35/3 11/45/13
f 11/45/13 24/35/3 12/46/14
f 12/46/14 24/35/3 13/47/15
f 13/47/15 24/35/3 14/48/16
f 14/48/16 24/35/3 15/49/17
f 15/49/17 24/35/3 16/50/18
f 16/50/18 24/35/3 17/51/19
f 17/51/19 24/35/3 18/52/20
f 18/52/20 24/35/3 19/53/21
f 19/53/21 24/35/3 20/54/22
f 20/54/22 24/35/3 21/55/23
f 21/55/23 24/35/3 22/56/24
f 22/56/24 24/35/3 23/57/25
f 23/57/25 24/35/3 25/58/26
f 25/58/26 24/35/3 26/59/27
f 26/59/27 24/35/3 27/60/28
f 27/60/28 24/35/3 28/61/29
f 28/61/29 24/35/3 29/62/30
f 29/62/30 24/35/3 30/63/31
f 30/63/31 24/35/3 31/64/32
f 31/64/32 24/35/3 32/65/33
f 32/65/33 24/35/3 33/66/34
f 33/66/34 24/35/3 1/34/2
