# Blender v2.80 (sub 75) OBJ File: ''
# www.blender.org
o Icosphere
v 0.000000 -0.500000 -0.000000
v 0.101590 -0.483975 0.073809
v -0.038803 -0.483975 0.119426
v 0.361804 -0.223610 0.262863
v 0.304773 -0.328759 0.221428
v 0.406365 -0.251150 0.147619
v -0.125573 -0.483974 -0.000000
v -0.038803 -0.483975 -0.119426
v 0.101590 -0.483975 -0.073809
v 0.430349 -0.125575 0.221429
v -0.138194 -0.223610 0.425325
v -0.014820 -0.251151 0.432092
v -0.077608 -0.125576 0.477711
v -0.447213 -0.223608 -0.000000
v -0.415525 -0.251149 0.119427
v -0.478313 -0.125575 0.073809
v -0.138194 -0.223610 -0.425325
v -0.241986 -0.251151 -0.358282
v -0.218003 -0.125576 -0.432094
v 0.361804 -0.223610 -0.262863
v 0.265970 -0.251151 -0.340856
v 0.343579 -0.125576 -0.340858
v 0.343579 -0.125576 0.340858
v -0.218003 -0.125576 0.432094
v -0.478313 -0.125575 -0.073809
v -0.077608 -0.125576 -0.477711
v 0.430349 -0.125575 -0.221429
v 0.138194 0.223610 0.425325
v 0.241986 0.251151 0.358282
v 0.116411 0.328760 0.358282
v -0.361804 0.223610 0.262863
v -0.265970 0.251151 0.340856
v -0.304773 0.328759 0.221428
v -0.361804 0.223610 -0.262863
v -0.406365 0.251150 -0.147619
v -0.304773 0.328759 -0.221428
v 0.138194 0.223610 -0.425325
v 0.014820 0.251151 -0.432092
v 0.116411 0.328760 -0.358282
v 0.447213 0.223608 0.000000
v 0.415525 0.251149 -0.119427
v 0.376721 0.328757 0.000000
v 0.125573 0.483974 0.000000
v 0.038803 0.483975 -0.119426
v 0.000000 0.500000 0.000000
v 0.262865 0.425326 0.000000
v 0.180900 0.447215 -0.131431
v 0.319097 0.361805 -0.131432
v 0.081228 0.425327 -0.249998
v 0.223605 0.361806 -0.262864
v 0.344095 0.262868 -0.249998
v 0.241986 0.251151 -0.358282
v -0.101590 0.483975 -0.073809
v -0.069099 0.447215 -0.212660
v -0.026395 0.361806 -0.344092
v -0.212661 0.425327 -0.154506
v -0.180902 0.361806 -0.293889
v -0.131434 0.262869 -0.404506
v -0.265970 0.251151 -0.340856
v -0.101590 0.483975 0.073809
v -0.223605 0.447215 0.000000
v -0.335408 0.361805 -0.081229
v -0.212661 0.425327 0.154506
v -0.335408 0.361805 0.081229
v -0.425324 0.262868 0.000000
v -0.406365 0.251150 0.147619
v 0.038803 0.483975 0.119426
v -0.069099 0.447215 0.212660
v -0.180902 0.361806 0.293889
v 0.081228 0.425327 0.249998
v -0.026395 0.361806 0.344092
v -0.131434 0.262869 0.404506
v 0.014820 0.251151 0.432092
v 0.180900 0.447215 0.131431
v 0.223605 0.361806 0.262864
v 0.319097 0.361805 0.131432
v 0.344095 0.262868 0.249998
v 0.415525 0.251149 0.119427
v 0.478313 0.125575 -0.073809
v 0.475529 0.000000 -0.154506
v 0.430902 0.138198 -0.212661
v 0.404510 0.000000 -0.293891
v 0.335410 0.138199 -0.344095
v 0.293893 0.000000 -0.404508
v 0.218003 0.125576 -0.432094
v 0.077608 0.125576 -0.477711
v 0.000000 0.000000 -0.500000
v -0.069099 0.138199 -0.475528
v -0.154508 0.000000 -0.475528
v -0.223608 0.138199 -0.425324
v -0.293893 0.000000 -0.404508
v -0.343579 0.125576 -0.340858
v -0.430349 0.125575 -0.221429
v -0.475529 0.000000 -0.154506
v -0.473607 0.138198 -0.081229
v -0.500000 0.000000 0.000000
v -0.473606 0.138198 0.081229
v -0.475529 -0.000000 0.154506
v -0.430349 0.125575 0.221429
v -0.343579 0.125576 0.340858
v -0.293893 -0.000000 0.404508
v -0.223608 0.138198 0.425324
v -0.154509 -0.000000 0.475528
v -0.069100 0.138198 0.475528
v 0.000000 -0.000000 0.500000
v 0.077608 0.125576 0.477711
v 0.218003 0.125576 0.432094
v 0.293893 -0.000000 0.404508
v 0.335410 0.138198 0.344095
v 0.404509 -0.000001 0.293891
v 0.430902 0.138197 0.212662
v 0.475529 -0.000000 0.154506
v 0.478313 0.125575 0.073809
v 0.154509 0.000000 -0.475528
v 0.223608 -0.138199 -0.425324
v 0.069100 -0.138199 -0.475527
v 0.131434 -0.262869 -0.404506
v -0.014820 -0.251151 -0.432092
v -0.404509 0.000000 -0.293892
v -0.335409 -0.138199 -0.344095
v -0.430902 -0.138198 -0.212662
v -0.344095 -0.262868 -0.249998
v -0.415525 -0.251149 -0.119427
v -0.404509 -0.000000 0.293892
v -0.430902 -0.138198 0.212662
v -0.335410 -0.138199 0.344095
v -0.344095 -0.262868 0.249998
v -0.241986 -0.251151 0.358282
v 0.154509 -0.000000 0.475528
v 0.069100 -0.138199 0.475527
v 0.223608 -0.138199 0.425324
v 0.131434 -0.262869 0.404506
v 0.265970 -0.251151 0.340856
v 0.500000 0.000000 0.000000
v 0.473607 -0.138198 0.081229
v 0.473607 -0.138198 -0.081229
v 0.425324 -0.262868 -0.000000
v 0.406365 -0.251150 -0.147619
v 0.304773 -0.328759 -0.221428
v 0.212661 -0.425327 -0.154506
v 0.180902 -0.361806 -0.293890
v 0.069098 -0.447215 -0.212661
v 0.026395 -0.361805 -0.344093
v -0.081228 -0.425327 -0.249998
v -0.116411 -0.328760 -0.358282
v -0.223605 -0.361806 -0.262864
v -0.180901 -0.447214 -0.131431
v -0.319097 -0.361805 -0.131431
v -0.262865 -0.425326 -0.000000
v -0.376721 -0.328757 -0.000000
v -0.319097 -0.361805 0.131432
v -0.180901 -0.447214 0.131432
v -0.223605 -0.361805 0.262864
v -0.081228 -0.425327 0.249998
v -0.116411 -0.328760 0.358282
v 0.335409 -0.361805 -0.081228
v 0.335409 -0.361805 0.081229
v 0.223605 -0.447214 -0.000000
v 0.212661 -0.425327 0.154506
v 0.026395 -0.361806 0.344093
v 0.069099 -0.447215 0.212660
v 0.180902 -0.361805 0.293890
vn -0.0000 -1.0000 -0.0000
vn 0.2110 -0.9654 0.1533
vn -0.0806 -0.9654 0.2480
vn 0.7236 -0.4472 0.5257
vn 0.6042 -0.6650 0.4390
vn 0.8152 -0.5038 0.2857
vn -0.2608 -0.9654 -0.0000
vn -0.0806 -0.9654 -0.2480
vn 0.2110 -0.9654 -0.1533
vn 0.8650 -0.2431 0.4390
vn -0.2764 -0.4472 0.8506
vn -0.0198 -0.5038 0.8636
vn -0.1502 -0.2431 0.9583
vn -0.8944 -0.4472 -0.0000
vn -0.8274 -0.5038 0.2480
vn -0.9578 -0.2431 0.1533
vn -0.2764 -0.4472 -0.8506
vn -0.4915 -0.5038 -0.7103
vn -0.4417 -0.2431 -0.8636
vn 0.7236 -0.4472 -0.5257
vn 0.5237 -0.5038 -0.6870
vn 0.6848 -0.2431 -0.6870
vn 0.6848 -0.2431 0.6870
vn -0.4417 -0.2431 0.8636
vn -0.9578 -0.2431 -0.1533
vn -0.1502 -0.2431 -0.9583
vn 0.8650 -0.2431 -0.4390
vn 0.2764 0.4472 0.8506
vn 0.4915 0.5038 0.7103
vn 0.2308 0.6650 0.7103
vn -0.7236 0.4472 0.5257
vn -0.5237 0.5038 0.6870
vn -0.6042 0.6650 0.4390
vn -0.7236 0.4472 -0.5257
vn -0.8152 0.5038 -0.2857
vn -0.6042 0.6650 -0.4390
vn 0.2764 0.4472 -0.8506
vn 0.0198 0.5038 -0.8636
vn 0.2308 0.6650 -0.7103
vn 0.8944 0.4472 0.0000
vn 0.8274 0.5038 -0.2480
vn 0.7469 0.6650 0.0000
vn 0.2608 0.9654 0.0000
vn 0.0806 0.9654 -0.2480
vn 0.0000 1.0000 0.0000
vn 0.5257 0.8507 0.0000
vn 0.3682 0.8904 -0.2675
vn 0.6317 0.7275 -0.2675
vn 0.1625 0.8507 -0.5000
vn 0.4496 0.7276 -0.5182
vn 0.6882 0.5257 -0.5000
vn 0.4915 0.5038 -0.7103
vn -0.2110 0.9654 -0.1533
vn -0.1406 0.8904 -0.4329
vn -0.0592 0.7276 -0.6835
vn -0.4253 0.8507 -0.3090
vn -0.3539 0.7276 -0.5878
vn -0.2629 0.5257 -0.8090
vn -0.5237 0.5038 -0.6870
vn -0.2110 0.9654 0.1533
vn -0.4551 0.8904 0.0000
vn -0.6683 0.7275 -0.1549
vn -0.4253 0.8507 0.3090
vn -0.6683 0.7275 0.1549
vn -0.8506 0.5257 0.0000
vn -0.8152 0.5038 0.2857
vn 0.0806 0.9654 0.2480
vn -0.1406 0.8904 0.4329
vn -0.3539 0.7276 0.5878
vn 0.1625 0.8507 0.5000
vn -0.0592 0.7276 0.6835
vn -0.2629 0.5257 0.8090
vn 0.0198 0.5038 0.8636
vn 0.3682 0.8904 0.2675
vn 0.4496 0.7276 0.5182
vn 0.6317 0.7275 0.2675
vn 0.6882 0.5257 0.5000
vn 0.8274 0.5038 0.2480
vn 0.9578 0.2431 -0.1533
vn 0.9511 0.0000 -0.3090
vn 0.8593 0.2724 -0.4329
vn 0.8090 0.0089 -0.5878
vn 0.6772 0.2724 -0.6835
vn 0.5878 0.0000 -0.8090
vn 0.4417 0.2431 -0.8636
vn 0.1502 0.2431 -0.9583
vn 0.0000 -0.0000 -1.0000
vn -0.1461 0.2724 -0.9510
vn -0.3090 0.0089 -0.9510
vn -0.4408 0.2724 -0.8553
vn -0.5878 -0.0000 -0.8090
vn -0.6848 0.2431 -0.6870
vn -0.8650 0.2431 -0.4390
vn -0.9511 -0.0000 -0.3090
vn -0.9496 0.2724 -0.1549
vn -1.0000 0.0089 0.0000
vn -0.9496 0.2724 0.1549
vn -0.9511 0.0000 0.3090
vn -0.8650 0.2431 0.4390
vn -0.6848 0.2431 0.6870
vn -0.5878 -0.0000 0.8090
vn -0.4408 0.2724 0.8553
vn -0.3090 0.0089 0.9510
vn -0.1461 0.2724 0.9510
vn 0.0000 -0.0000 1.0000
vn 0.1502 0.2431 0.9583
vn 0.4417 0.2431 0.8636
vn 0.5878 0.0000 0.8090
vn 0.6772 0.2724 0.6835
vn 0.8090 0.0089 0.5878
vn 0.8593 0.2724 0.4329
vn 0.9511 0.0000 0.3090
vn 0.9578 0.2431 0.1533
vn 0.3090 -0.0089 -0.9510
vn 0.4408 -0.2724 -0.8553
vn 0.1461 -0.2724 -0.9510
vn 0.2629 -0.5257 -0.8090
vn -0.0198 -0.5038 -0.8636
vn -0.8090 -0.0089 -0.5878
vn -0.6772 -0.2724 -0.6835
vn -0.8593 -0.2724 -0.4329
vn -0.6882 -0.5257 -0.5000
vn -0.8274 -0.5038 -0.2480
vn -0.8090 -0.0089 0.5878
vn -0.8593 -0.2724 0.4329
vn -0.6772 -0.2724 0.6835
vn -0.6882 -0.5257 0.5000
vn -0.4915 -0.5038 0.7103
vn 0.3090 -0.0089 0.9510
vn 0.1461 -0.2724 0.9510
vn 0.4408 -0.2724 0.8553
vn 0.2629 -0.5257 0.8090
vn 0.5237 -0.5038 0.6870
vn 1.0000 -0.0089 -0.0000
vn 0.9496 -0.2724 0.1549
vn 0.9496 -0.2724 -0.1549
vn 0.8506 -0.5257 -0.0000
vn 0.8152 -0.5038 -0.2857
vn 0.6042 -0.6650 -0.4390
vn 0.4253 -0.8507 -0.3090
vn 0.3539 -0.7275 -0.5878
vn 0.1406 -0.8904 -0.4329
vn 0.0592 -0.7275 -0.6835
vn -0.1625 -0.8507 -0.5000
vn -0.2308 -0.6650 -0.7103
vn -0.4496 -0.7276 -0.5182
vn -0.3682 -0.8904 -0.2675
vn -0.6317 -0.7275 -0.2675
vn -0.5257 -0.8507 -0.0000
vn -0.7469 -0.6650 -0.0000
vn -0.6317 -0.7275 0.2675
vn -0.3682 -0.8904 0.2675
vn -0.4496 -0.7276 0.5182
vn -0.1625 -0.8507 0.5000
vn -0.2308 -0.6650 0.7103
vn 0.6683 -0.7276 -0.1549
vn 0.6683 -0.7276 0.1549
vn 0.4551 -0.8904 -0.0000
vn 0.4253 -0.8507 0.3090
vn 0.0592 -0.7276 0.6835
vn 0.1406 -0.8904 0.4329
vn 0.3539 -0.7275 0.5878
s 1
f 1//1 2//2 3//3
f 4//4 5//5 6//6
f 1//1 3//3 7//7
f 1//1 7//7 8//8
f 1//1 8//8 9//9
f 4//4 6//6 10//10
f 11//11 12//12 13//13
f 14//14 15//15 16//16
f 17//17 18//18 19//19
f 20//20 21//21 22//22
f 4//4 10//10 23//23
f 11//11 13//13 24//24
f 14//14 16//16 25//25
f 17//17 19//19 26//26
f 20//20 22//22 27//27
f 28//28 29//29 30//30
f 31//31 32//32 33//33
f 34//34 35//35 36//36
f 37//37 38//38 39//39
f 40//40 41//41 42//42
f 43//43 44//44 45//45
f 46//46 47//47 43//43
f 42//42 48//48 46//46
f 43//43 47//47 44//44
f 47//47 49//49 44//44
f 46//46 48//48 47//47
f 48//48 50//50 47//47
f 47//47 50//50 49//49
f 50//50 39//39 49//49
f 42//42 41//41 48//48
f 41//41 51//51 48//48
f 48//48 51//51 50//50
f 51//51 52//52 50//50
f 50//50 52//52 39//39
f 52//52 37//37 39//39
f 44//44 53//53 45//45
f 49//49 54//54 44//44
f 39//39 55//55 49//49
f 44//44 54//54 53//53
f 54//54 56//56 53//53
f 49//49 55//55 54//54
f 55//55 57//57 54//54
f 54//54 57//57 56//56
f 57//57 36//36 56//56
f 39//39 38//38 55//55
f 38//38 58//58 55//55
f 55//55 58//58 57//57
f 58//58 59//59 57//57
f 57//57 59//59 36//36
f 59//59 34//34 36//36
f 53//53 60//60 45//45
f 56//56 61//61 53//53
f 36//36 62//62 56//56
f 53//53 61//61 60//60
f 61//61 63//63 60//60
f 56//56 62//62 61//61
f 62//62 64//64 61//61
f 61//61 64//64 63//63
f 64//64 33//33 63//63
f 36//36 35//35 62//62
f 35//35 65//65 62//62
f 62//62 65//65 64//64
f 65//65 66//66 64//64
f 64//64 66//66 33//33
f 66//66 31//31 33//33
f 60//60 67//67 45//45
f 63//63 68//68 60//60
f 33//33 69//69 63//63
f 60//60 68//68 67//67
f 68//68 70//70 67//67
f 63//63 69//69 68//68
f 69//69 71//71 68//68
f 68//68 71//71 70//70
f 71//71 30//30 70//70
f 33//33 32//32 69//69
f 32//32 72//72 69//69
f 69//69 72//72 71//71
f 72//72 73//73 71//71
f 71//71 73//73 30//30
f 73//73 28//28 30//30
f 67//67 43//43 45//45
f 70//70 74//74 67//67
f 30//30 75//75 70//70
f 67//67 74//74 43//43
f 74//74 46//46 43//43
f 70//70 75//75 74//74
f 75//75 76//76 74//74
f 74//74 76//76 46//46
f 76//76 42//42 46//46
f 30//30 29//29 75//75
f 29//29 77//77 75//75
f 75//75 77//77 76//76
f 77//77 78//78 76//76
f 76//76 78//78 42//42
f 78//78 40//40 42//42
f 79//79 41//41 40//40
f 80//80 81//81 79//79
f 27//27 82//82 80//80
f 79//79 81//81 41//41
f 81//81 51//51 41//41
f 80//80 82//82 81//81
f 82//82 83//83 81//81
f 81//81 83//83 51//51
f 83//83 52//52 51//51
f 27//27 22//22 82//82
f 22//22 84//84 82//82
f 82//82 84//84 83//83
f 84//84 85//85 83//83
f 83//83 85//85 52//52
f 85//85 37//37 52//52
f 86//86 38//38 37//37
f 87//87 88//88 86//86
f 26//26 89//89 87//87
f 86//86 88//88 38//38
f 88//88 58//58 38//38
f 87//87 89//89 88//88
f 89//89 90//90 88//88
f 88//88 90//90 58//58
f 90//90 59//59 58//58
f 26//26 19//19 89//89
f 19//19 91//91 89//89
f 89//89 91//91 90//90
f 91//91 92//92 90//90
f 90//90 92//92 59//59
f 92//92 34//34 59//59
f 93//93 35//35 34//34
f 94//94 95//95 93//93
f 25//25 96//96 94//94
f 93//93 95//95 35//35
f 95//95 65//65 35//35
f 94//94 96//96 95//95
f 96//96 97//97 95//95
f 95//95 97//97 65//65
f 97//97 66//66 65//65
f 25//25 16//16 96//96
f 16//16 98//98 96//96
f 96//96 98//98 97//97
f 98//98 99//99 97//97
f 97//97 99//99 66//66
f 99//99 31//31 66//66
f 100//100 32//32 31//31
f 101//101 102//102 100//100
f 24//24 103//103 101//101
f 100//100 102//102 32//32
f 102//102 72//72 32//32
f 101//101 103//103 102//102
f 103//103 104//104 102//102
f 102//102 104//104 72//72
f 104//104 73//73 72//72
f 24//24 13//13 103//103
f 13//13 105//105 103//103
f 103//103 105//105 104//104
f 105//105 106//106 104//104
f 104//104 106//106 73//73
f 106//106 28//28 73//73
f 107//107 29//29 28//28
f 108//108 109//109 107//107
f 23//23 110//110 108//108
f 107//107 109//109 29//29
f 109//109 77//77 29//29
f 108//108 110//110 109//109
f 110//110 111//111 109//109
f 109//109 111//111 77//77
f 111//111 78//78 77//77
f 23//23 10//10 110//110
f 10//10 112//112 110//110
f 110//110 112//112 111//111
f 112//112 113//113 111//111
f 111//111 113//113 78//78
f 113//113 40//40 78//78
f 85//85 86//86 37//37
f 84//84 114//114 85//85
f 22//22 115//115 84//84
f 85//85 114//114 86//86
f 114//114 87//87 86//86
f 84//84 115//115 114//114
f 115//115 116//116 114//114
f 114//114 116//116 87//87
f 116//116 26//26 87//87
f 22//22 21//21 115//115
f 21//21 117//117 115//115
f 115//115 117//117 116//116
f 117//117 118//118 116//116
f 116//116 118//118 26//26
f 118//118 17//17 26//26
f 92//92 93//93 34//34
f 91//91 119//119 92//92
f 19//19 120//120 91//91
f 92//92 119//119 93//93
f 119//119 94//94 93//93
f 91//91 120//120 119//119
f 120//120 121//121 119//119
f 119//119 121//121 94//94
f 121//121 25//25 94//94
f 19//19 18//18 120//120
f 18//18 122//122 120//120
f 120//120 122//122 121//121
f 122//122 123//123 121//121
f 121//121 123//123 25//25
f 123//123 14//14 25//25
f 99//99 100//100 31//31
f 98//98 124//124 99//99
f 16//16 125//125 98//98
f 99//99 124//124 100//100
f 124//124 101//101 100//100
f 98//98 125//125 124//124
f 125//125 126//126 124//124
f 124//124 126//126 101//101
f 126//126 24//24 101//101
f 16//16 15//15 125//125
f 15//15 127//127 125//125
f 125//125 127//127 126//126
f 127//127 128//128 126//126
f 126//126 128//128 24//24
f 128//128 11//11 24//24
f 106//106 107//107 28//28
f 105//105 129//129 106//106
f 13//13 130//130 105//105
f 106//106 129//129 107//107
f 129//129 108//108 107//107
f 105//105 130//130 129//129
f 130//130 131//131 129//129
f 129//129 131//131 108//108
f 131//131 23//23 108//108
f 13//13 12//12 130//130
f 12//12 132//132 130//130
f 130//130 132//132 131//131
f 132//132 133//133 131//131
f 131//131 133//133 23//23
f 133//133 4//4 23//23
f 113//113 79//79 40//40
f 112//112 134//134 113//113
f 10//10 135//135 112//112
f 113//113 134//134 79//79
f 134//134 80//80 79//79
f 112//112 135//135 134//134
f 135//135 136//136 134//134
f 134//134 136//136 80//80
f 136//136 27//27 80//80
f 10//10 6//6 135//135
f 6//6 137//137 135//135
f 135//135 137//137 136//136
f 137//137 138//138 136//136
f 136//136 138//138 27//27
f 138//138 20//20 27//27
f 139//139 21//21 20//20
f 140//140 141//141 139//139
f 9//9 142//142 140//140
f 139//139 141//141 21//21
f 141//141 117//117 21//21
f 140//140 142//142 141//141
f 142//142 143//143 141//141
f 141//141 143//143 117//117
f 143//143 118//118 117//117
f 9//9 8//8 142//142
f 8//8 144//144 142//142
f 142//142 144//144 143//143
f 144//144 145//145 143//143
f 143//143 145//145 118//118
f 145//145 17//17 118//118
f 145//145 18//18 17//17
f 144//144 146//146 145//145
f 8//8 147//147 144//144
f 145//145 146//146 18//18
f 146//146 122//122 18//18
f 144//144 147//147 146//146
f 147//147 148//148 146//146
f 146//146 148//148 122//122
f 148//148 123//123 122//122
f 8//8 7//7 147//147
f 7//7 149//149 147//147
f 147//147 149//149 148//148
f 149//149 150//150 148//148
f 148//148 150//150 123//123
f 150//150 14//14 123//123
f 150//150 15//15 14//14
f 149//149 151//151 150//150
f 7//7 152//152 149//149
f 150//150 151//151 15//15
f 151//151 127//127 15//15
f 149//149 152//152 151//151
f 152//152 153//153 151//151
f 151//151 153//153 127//127
f 153//153 128//128 127//127
f 7//7 3//3 152//152
f 3//3 154//154 152//152
f 152//152 154//154 153//153
f 154//154 155//155 153//153
f 153//153 155//155 128//128
f 155//155 11//11 128//128
f 138//138 139//139 20//20
f 137//137 156//156 138//138
f 6//6 157//157 137//137
f 138//138 156//156 139//139
f 156//156 140//140 139//139
f 137//137 157//157 156//156
f 157//157 158//158 156//156
f 156//156 158//158 140//140
f 158//158 9//9 140//140
f 6//6 5//5 157//157
f 5//5 159//159 157//157
f 157//157 159//159 158//158
f 159//159 2//2 158//158
f 158//158 2//2 9//9
f 2//2 1//1 9//9
f 155//155 12//12 11//11
f 154//154 160//160 155//155
f 3//3 161//161 154//154
f 155//155 160//160 12//12
f 160//160 132//132 12//12
f 154//154 161//161 160//160
f 161//161 162//162 160//160
f 160//160 162//162 132//132
f 162//162 133//133 132//132
f 3//3 2//2 161//161
f 2//2 159//159 161//161
f 161//161 159//159 162//162
f 159//159 5//5 162//162
f 162//162 5//5 133//133
f 5//5 4//4 133//133
